<svg width="22" height="18" viewBox="0 0 22 18" fill="currentColor" xmlns="http://www.w3.org/2000/svg">
<path d="M17.901 7C18.296 7.68556 18.946 8.18723 19.7093 8.3957C20.4726 8.60417 21.2873 8.50256 21.976 8.113C22.057 8.83665 21.9102 9.56754 21.5562 10.2039C21.2022 10.8402 20.6586 11.3502 20.001 11.663L20 18H13V16C13.0001 15.4954 12.8096 15.0094 12.4665 14.6395C12.1234 14.2695 11.6531 14.0428 11.15 14.005L11 14C10.4954 13.9998 10.0094 14.1904 9.63943 14.5335C9.26945 14.8766 9.04282 15.3468 9.00498 15.85L8.99998 16V18H1.99998V11.664C1.34113 11.3517 0.796262 10.8414 0.441468 10.2044C0.0866735 9.56746 -0.0603314 8.83558 0.0209821 8.111C0.709618 8.50136 1.52466 8.60362 2.28839 8.3955C3.05212 8.18738 3.70259 7.68576 4.09798 7H17.901ZM16.93 9H5.06898L4.99298 9.079C4.56198 9.499 4.05798 9.839 3.50698 10.081L3.41098 10.12L3.99998 10.4L3.99898 16L7.00098 15.999V15.927L7.01098 15.704C7.15998 13.688 8.79098 12.105 10.865 12.006L11.073 12.001L11.296 12.011C12.2681 12.0831 13.1804 12.5077 13.8616 13.2051C14.5427 13.9024 14.9457 14.8245 14.995 15.798L14.999 15.999L18 16L18.001 10.4L18.588 10.12L18.493 10.08C17.9414 9.83849 17.438 9.49938 17.007 9.079L16.93 9ZM16.036 0C16.1075 0.4961 16.2848 0.971049 16.5557 1.39272C16.8267 1.81438 17.1851 2.17293 17.6066 2.4441C18.0282 2.71527 18.5031 2.89273 18.9991 2.96448C19.4952 3.03624 20.0009 3.00061 20.482 2.86C20.3964 3.68858 20.018 4.45945 19.415 5.03408C18.8119 5.60872 18.0237 5.94943 17.192 5.995L17 6H4.99998C4.13396 6.00014 3.29863 5.6792 2.65549 5.09923C2.01234 4.51925 1.60706 3.72143 1.51798 2.86C1.99909 3.00061 2.50478 3.03624 3.00085 2.96448C3.49691 2.89273 3.97178 2.71527 4.39332 2.4441C4.81487 2.17293 5.17325 1.81438 5.44423 1.39272C5.71521 0.971049 5.89245 0.4961 5.96398 0H16.036ZM14.6 2H7.39898C7.0387 2.70545 6.53047 3.32487 5.90898 3.816L5.66098 4H16.338L16.326 3.992C15.6828 3.53728 15.1444 2.95012 14.747 2.27L14.6 2Z" fill="#2A0A52" fillOpacity="0.8"/>
</svg>
