<svg width="22" height="19" viewBox="0 0 22 19" fill="currentColor" xmlns="http://www.w3.org/2000/svg">
<path d="M7.64597 14.2603L11.038 16.4223L14.43 14.2613L16.29 15.4463L11.038 18.7923L5.78597 15.4463L7.64597 14.2613V14.2603ZM6.76897 5.98033L9.16197 4.42733L6.73697 2.85333L4.27997 4.37033L6.76997 5.98033H6.76897ZM8.60897 7.17033L11 8.71933L13.39 7.17233L11 5.61933L8.60897 7.17133V7.17033ZM12.84 9.91033L15.264 11.4783L17.714 9.97633L15.229 8.36433L12.84 9.90933V9.91033ZM11 3.23433L15.237 0.486328L21.46 4.33033L17.068 7.17333L21.461 10.0233L15.235 13.8423L11 11.1003L6.76497 13.8403L0.534973 10.0233L4.93097 7.17233L0.538973 4.33033L6.76297 0.487328L11 3.23533V3.23433ZM12.837 4.42633L15.23 5.98033L17.719 4.37033L15.263 2.85333L12.837 4.42733V4.42633ZM9.15997 9.91033L6.76997 8.36433L4.28397 9.97733L6.73497 11.4793L9.15997 9.91033Z" fill="black" fillOpacity="0.7"/>
</svg>
